Patient4_TMGait_0pt6_02_right_33_EMG.mot
version=1
nRows=23
nColumns=33
inDegrees=no
endheader
time	1LAddLong	2LGlutMax	3LGlutMed	4LIliopsoas	5LSemiMemb	6LBicFemLong	7LRecFem	8LVastMed	9LVastLat	10LGasMed	11LTibAnt	12lTibPost	13LPeroneusLong	14LSol	15LExtDigLong	16LFlexDigLong	17RAddLong	18RGlutMax	19RGlutMed	20RIliopsoas	21RSemiMemb	22RBicFemLong	23RRecFem	24RVastMed	25RVastLat	26RGasMed	27RTibAnt	28RTibPost	29RPeroneusLong	30RSol	31RExtDigLong	32RFlexDigLong
39.71	-0.000153	-0.37247	0.048523	-0.00946	-0.023193	0.46524	0.093689	-0.008087	0.004578	0.035706	0.002747	-0.009308	-0.20004	0.20798	-0.075073	-0.025177	0.20615	-0.33096	-0.28778	0.029602	-0.036316	-0.016327	0.74097	0.11368	0.026855	-0.010986	0.042572	-0.019073	-0.059967	-0.033722	-0.001373	-0.00885
39.711	-0.01358	-0.37201	0.046997	0.005341	-0.005493	0.44342	0.046997	0.005798	0.019989	0.3093	-0.015717	-0.009613	0.47684	0.096741	0.003815	-0.021667	0.12329	-0.29129	-0.20981	0.085144	-0.039215	-0.018463	0.70602	0.076752	0.017853	-0.007019	0.088348	-0.010834	-0.06897	-0.059662	-0.00061	-0.009766
39.712	-0.013428	-0.36819	-0.003662	0.002899	-0.015106	0.1506	0.050659	-0.000153	-0.027161	0.48248	0.007324	-0.010223	0.15152	-0.084076	0.11169	-0.005188	0.044708	-0.32394	-0.084686	0.024872	-0.042877	0.005188	0.48798	0.059357	0.04364	0.001068	0.0177	-0.010071	0.084534	-0.10788	-0.001526	-0.007477
39.713	-0.008087	-0.3978	0.050049	0.00351	-0.045624	-0.32654	0.04776	0.002441	-0.055237	0.70541	0.031128	-0.005341	-0.086975	-0.096588	0.11414	0.00412	-0.062561	-0.28427	-0.000763	-0.083923	-0.034027	0.023193	0.42557	0.089722	0.043793	0.001831	0.039368	-0.007019	0.024872	-0.12894	-0.001526	-0.007324
39.714	-0.001984	-0.42404	-0.03479	0.003815	-0.023041	-0.20783	0.028381	0.010071	-0.075989	0.79178	0.033264	-0.010986	-0.1622	-0.046082	0.045624	-0.005493	-0.16129	-0.26032	-0.15442	-0.1619	-0.01709	0.027618	0.35675	0.14297	0.049133	-0.007477	-0.001526	-0.005646	-0.013428	-0.11322	-0.001526	-0.001526
39.715	0.00824	-0.39505	-0.033112	0.029144	-0.023651	0.004883	0.019073	0.007172	-0.092468	0.32715	0.000458	-0.010223	-0.26871	-0.005493	0.0383	-0.003815	-0.19165	-0.29159	-0.21683	-0.11749	-0.033722	-0.006409	0.2182	0.095825	0.017395	-0.008545	0.092926	-0.003662	-0.08667	-0.10971	-0.00351	0.003357
39.716	-0.006714	-0.39459	0.051422	0.006409	-0.003357	-0.19913	0.016632	0.011902	-0.049744	-0.17929	0.003204	-0.009308	-0.18616	-0.041504	0.14923	-0.002747	-0.18509	-0.31601	-0.13748	0.001373	-0.033417	-0.001526	0.11246	0.050812	0.015259	-0.000916	0.15243	-0.005951	0.085449	-0.11337	-0.002899	-0.001373
39.717	0.000305	-0.37186	0.07843	0.006256	0.05127	-0.21439	0.027313	0.009155	-0.068817	-0.7666	-0.009003	-0.049591	0.18799	-0.041504	0.035858	0.003204	-0.15472	-0.29068	-0.12451	0.14481	-0.037842	-0.020447	0.20859	0.036469	0.018005	0.001984	0.39307	-0.006561	0.16373	-0.054169	-0.002747	0.004883
39.718	-0.000458	-0.38788	0.029907	0.009918	0.008698	-0.084991	-0.03067	0.018005	-0.012207	-0.48325	-0.019684	0.071259	0.32791	-0.063477	-0.073242	-0.001984	-0.10407	-0.27588	-0.26077	0.35416	-0.042419	-0.038605	0.19486	-0.032654	-0.007172	-0.000458	0.504	-0.006714	0.10834	-0.08667	-0.00412	0.008087
39.719	0.003967	-0.36072	0.016937	-0.017395	-0.00061	-0.10468	-0.010071	0.014343	0.14633	0.037079	-0.001678	0.086365	0.22308	0.089874	0.039825	-0.031433	-0.082092	-0.27878	-0.30273	0.26062	-0.04364	-0.058594	-0.03479	-0.021057	0.007782	0.004272	0.7724	-0.004578	-0.096436	-0.074921	-0.008392	0.008087
39.72	0.010986	-0.31326	0.086212	-0.008392	-0.006561	-0.15182	-0.030212	0.003815	0.30579	0.35934	-0.000153	-0.028229	-0.09079	0.016022	0.10925	0.002747	-0.041351	-0.26504	-0.41214	0.14526	-0.052948	-0.073242	-0.11765	0.028839	0.011902	-0.004883	0.6424	-0.009155	-0.13046	-0.025024	-0.003967	0.011597
39.721	0.005493	-0.31555	0.091553	-0.01358	0.001984	-0.24307	-0.021667	-0.012665	0.22659	0.53497	0.002136	-0.000916	-0.36468	-0.14343	0.078735	0.010376	-0.001831	-0.23972	-0.50095	0.085144	-0.064392	-0.061798	-0.13733	-0.02243	0.008698	-0.005188	0.000763	-0.006561	-0.078125	0.018768	-0.008392	0.001526
39.722	-0.002899	-0.26154	0.12482	0.005035	0.034943	-0.27725	0.020752	-0.016937	-0.011597	0.2095	-0.007324	0.024567	0.11429	-0.23789	0.087738	-0.011292	0.022278	-0.25345	-0.73059	0.10483	-0.057373	-0.053711	-0.19623	-0.034637	0.003204	-0.007782	-1.0756	-0.003967	-0.005951	-0.073242	0.00351	-0.00412
39.723	-0.019836	-0.25253	0.023804	0.033875	0.016022	-0.16541	0.036774	-0.005951	-0.11749	0.016632	0.003967	-0.001373	-0.042725	0.071411	0.094147	-0.019836	0.014496	-0.28778	-0.53238	0.030365	-0.050812	-0.020294	-0.11337	-0.036926	-0.013428	0.004272	-0.67963	-0.005188	-0.000763	-0.09903	-0.005798	-0.00061
39.724	-0.017548	-0.21896	0.023346	0.035858	0.038605	0.001526	0.004578	0.000153	-0.12695	-0.14648	0.014648	-0.018311	-0.41153	0.011444	0.046692	-0.088654	0.017242	-0.24002	0.19791	-0.007324	-0.042114	-0.010834	-0.069427	-0.051422	0.009766	0.000153	0.021362	-0.010376	0.025635	0.003357	-0.002441	-0.01236
39.725	-0.005493	-0.19424	0.003967	-0.005341	0.048676	0.05249	0.00473	-0.00061	-0.092468	-0.25574	0.024109	-0.011597	-0.45013	-0.14771	-0.069275	-0.018158	0.037994	-0.15961	0.91782	-0.050812	-0.045166	-0.013885	-0.12604	-0.050659	0.002289	0.002136	-0.019226	-0.005035	0.071106	0.047302	-0.001526	-0.010376
39.726	0.017395	-0.16571	-0.006409	0.011597	0.045471	0.11429	-0.005951	-0.004272	-0.03479	-0.36926	0.018158	0.007172	-0.25513	0.49835	-0.18158	-0.007324	0.035553	-0.14313	1.1952	0.029602	-0.038605	-0.010071	-0.30991	-0.085297	0.025635	0.001831	-0.081177	-0.007172	0.057068	-0.080261	-0.005188	0.00061
39.727	0.030975	-0.13397	0.030212	0.009003	0.031891	0.13031	-0.023956	-0.002747	-0.020142	-0.63156	0.019073	0.014191	-0.26321	0.041809	-0.1239	0.054626	0.019531	-0.17059	0.60715	-0.057068	-0.045929	0.00061	-0.31311	-0.12924	0.019989	0.001526	-0.36865	-0.003815	0.020447	-0.17029	0.002594	-0.002899
39.728	0.019379	-0.12695	0.059204	-0.005188	0.012665	0.11871	0.003662	-0.002441	-0.022583	-0.3273	0.002747	-0.025024	-0.19455	-1.0318	-0.08606	0.018005	-0.000305	-0.19089	0.51987	-0.13718	-0.048828	0.008392	-0.40832	-0.087891	0.029602	0.002289	-0.063171	-0.003357	0.054169	-0.15182	-0.000305	-0.010071
39.729	0.014954	-0.05188	0.081482	-0.007172	-0.015564	0.049591	0.009918	0.001831	-0.023956	-0.16327	-0.006104	-0.13275	0.32135	-0.92575	-0.041199	0.00473	-0.023651	-0.19165	0.15778	-0.094147	-0.046082	-0.015564	-0.39398	-0.055695	0.03067	0.009918	-0.14954	-0.001221	0.045166	-0.10574	-0.003052	-0.010071
39.73	0.007629	-0.02655	0.11536	0.012665	0.001221	-0.027161	0.013885	0.006256	-0.022583	0.021515	-0.025635	-0.045776	0.21805	-0.65399	-0.053558	0.078735	-0.01297	-0.2179	-0.35584	0.028229	-0.049591	0.001221	-0.29587	-0.082855	0.009155	0.003967	-0.32333	-0.009003	0.20599	-0.009003	-0.00473	0.00412
39.731	0.007782	0.029907	0.14099	0.024109	0.00473	-0.051422	0.011902	0.005646	-0.007629	0.040283	0.000916	0.25085	0.011444	-0.47424	-0.071106	-0.12543	-0.020599	-0.16403	-0.50751	0.11612	-0.042725	0.011902	-0.18753	-0.058594	0.016479	0.003052	0.050659	-0.002289	0.27145	0.024414	-0.001984	-0.006714
39.732	0.006866	0.036774	0.070343	-0.008698	-0.002136	-0.09552	0.010071	0.006409	-0.01358	-0.063171	0.018158	0.27817	0.050049	0.14481	-0.054932	0.05661	-0.023193	-0.18845	-0.46997	0.039825	-0.041199	0.011444	0.050812	-0.028839	0.01236	-0.003967	0.28595	-0.011292	-0.083313	0.003204	-0.004425	0.007629
